<svg width="38" height="44" viewBox="0 0 38 44" fill="none" xmlns="http://www.w3.org/2000/svg">
<g clip-path="url(#clip0_1177_67705)">
<path d="M13.7527 25.0187L8.41955 8.13239C8.22536 7.51862 8.28375 6.84907 8.58898 6.27982C9.14922 5.22018 10.41 4.73374 11.5368 5.14517L11.6027 5.16913C12.3076 5.42609 12.8465 5.99505 13.073 6.70717L17.325 20.1797L16.1214 15.8654C15.8591 14.9311 16.2101 13.9334 16.9988 13.3714C17.5177 13.0005 18.1685 12.8558 18.796 12.979L19.2489 13.0716C20.0776 13.236 20.7493 13.8347 21.0011 14.6411L22.7298 20.1166L21.4584 15.0833C21.238 14.2388 21.5211 13.3426 22.1844 12.7785C22.7556 12.2925 23.5285 12.1151 24.2534 12.3133L24.4591 12.3711C25.2146 12.5729 25.8079 13.1451 26.0418 13.8849L28.0352 20.1931L26.515 14.6082C26.3296 13.9386 26.5308 13.2249 27.0325 12.7456C27.4958 12.3005 28.1614 12.1221 28.7852 12.276L29.3643 12.4181C29.9363 12.5561 30.4069 12.959 30.6402 13.4969C32.0271 16.6981 36.2467 27.4983 31.9063 33.7083C32.7192 34.2573 33.0308 35.3092 32.6491 36.214C32.6007 36.3221 32.5102 36.4058 32.3952 36.4426L21.5366 39.8693C21.4161 39.9075 21.2822 39.8959 21.1656 39.8379C20.3743 39.4139 19.9512 38.5226 20.1203 37.6451C20.1203 37.6451 16.2446 35.8717 14.276 33.0286C12.3074 30.1855 7.91582 25.6435 5.33237 23.6785C2.74893 21.7135 5.23258 19.0684 8.13237 20.7941C11.0322 22.5198 13.0102 23.357 13.7527 25.0187Z" fill="white"/>
<path d="M21.5994 40.1733C21.4053 40.2253 21.1973 40.2037 21.016 40.1037C20.1754 39.6513 19.6964 38.7512 19.7782 37.8138C18.9229 37.395 15.769 35.7196 14.0161 33.1932C12.1245 30.4602 7.80731 25.9518 5.14056 23.9199C3.70149 22.8312 3.76033 21.6087 4.24552 20.8902C4.89244 19.9322 6.53533 19.4741 8.2969 20.5239C8.84843 20.8517 9.35479 21.144 9.8456 21.4227C11.1015 22.1384 12.1409 22.7338 12.9129 23.4186L8.11659 8.22526C7.89605 7.53533 7.97097 6.77218 8.30423 6.13003C8.93607 4.93825 10.3754 4.38613 11.641 4.84955L11.7069 4.87351C12.4973 5.16106 13.1169 5.80945 13.3672 6.61031L15.8403 14.4425C16.0084 13.916 16.3403 13.4465 16.8082 13.1072C17.3958 12.6822 18.1384 12.5249 18.8469 12.662L19.2998 12.7546C20.0727 12.9102 20.7272 13.4006 21.0994 14.0796C21.2023 13.4873 21.5064 12.9362 21.9761 12.5369C22.6242 11.9827 23.5039 11.7827 24.3309 12.0069L24.5366 12.0648C25.2866 12.268 25.8943 12.7829 26.2165 13.4753C26.3219 13.1142 26.5253 12.7862 26.8035 12.5155C27.3533 11.9937 28.1132 11.7901 28.8517 11.9726L29.4308 12.1147C30.0923 12.2763 30.6533 12.7502 30.9229 13.3794C32.6881 17.46 36.3172 27.5208 32.3278 33.6427C33.0772 34.3098 33.3338 35.4003 32.9317 36.3402C32.8472 36.5353 32.6839 36.6801 32.4816 36.7462L21.6231 40.1729C21.6216 40.1673 21.6105 40.1703 21.5994 40.1733ZM5.68409 20.6236C5.27918 20.7321 4.95838 20.9548 4.76674 21.238C4.32365 21.8917 4.61353 22.7295 5.52503 23.4245C8.23547 25.4863 12.6138 30.0675 14.5394 32.839C16.4324 35.5775 20.213 37.3287 20.2537 37.3476C20.3884 37.4066 20.4577 37.5544 20.4294 37.6928C20.2861 38.4446 20.6398 39.188 21.3131 39.5485C21.3482 39.5688 21.3971 39.5736 21.4359 39.5632L32.2945 36.1365C32.3222 36.129 32.3414 36.112 32.3521 36.0853C32.6764 35.3208 32.4134 34.4282 31.7245 33.9648C31.6527 33.9187 31.6082 33.8414 31.5929 33.7623C31.5762 33.6776 31.5957 33.5951 31.6419 33.5233C33.4468 30.9412 33.9363 27.2433 33.1062 22.5257C32.4474 18.8026 31.0939 15.3488 30.3462 13.6231C30.1548 13.175 29.7564 12.8419 29.285 12.7245L28.7059 12.5824C28.1842 12.4547 27.6407 12.6003 27.2472 12.9733C26.8304 13.3703 26.6636 13.9678 26.8192 14.5265L28.3409 20.1169C28.3855 20.2833 28.2881 20.4521 28.1231 20.5022C27.9582 20.5523 27.7839 20.4564 27.7338 20.2915L25.7403 13.9834C25.5387 13.3419 25.0277 12.8546 24.3742 12.679L24.1685 12.6211C23.5473 12.4547 22.8798 12.6038 22.3909 13.0202C21.8252 13.5047 21.5764 14.2847 21.7641 15.0072L23.0355 20.0405C23.08 20.2068 22.9826 20.3756 22.8162 20.4202C22.6513 20.4704 22.4825 20.3729 22.4268 20.2095L20.6981 14.734C20.4761 14.0385 19.8977 13.5218 19.1877 13.3791L18.7348 13.2865C18.1954 13.1813 17.6333 13.3022 17.1846 13.6246C16.5061 14.1095 16.2031 14.9754 16.4297 15.7767L17.6332 20.091C17.6778 20.2574 17.5874 20.4302 17.4169 20.4818C17.252 20.532 17.0777 20.436 17.0276 20.2711L12.77 6.80004C12.5758 6.18627 12.0966 5.68456 11.4912 5.46632L11.4253 5.44235C10.4498 5.08549 9.34548 5.51218 8.85942 6.42711C8.59886 6.919 8.5474 7.50347 8.71374 8.03553L14.0469 24.9219C14.0956 25.0812 14.0162 25.2511 13.8599 25.3109C13.7035 25.3706 13.5295 25.2983 13.4587 25.1449C12.9042 23.8965 11.5639 23.1321 9.53443 21.9698C9.04213 21.6856 8.53022 21.3947 7.97315 21.0684C7.11069 20.5564 6.29977 20.4587 5.68409 20.6236Z" fill="black"/>
</g>
<defs>
<clipPath id="clip0_1177_67705">
<rect width="28.8378" height="37.1856" fill="white" transform="translate(0 7.46387) rotate(-15)"/>
</clipPath>
</defs>
</svg>
